# xmcd
#
# Track frame offsets: 
#        150
#        17291
#        42520
#        63589
#        81589
#        101221
#        119793
#        137619
#        160138
#        186498
#
# Disc length: 2834 seconds
#
# Revision: 0
# Processed by: cddbd v1.5.2PL0 Copyright (c) Steve Scherf et al.
# Submitted via: ExactAudioCopy v0.99pb5
#
DISCID=910b100a
DTITLE=Dang The Luan - Nhat ky cua hai dua minh
DYEAR=1900
DGENRE=Soundtrack
TTITLE0=Bong nho duong chieu
TTITLE1=Nguoi em xom dao
TTITLE2=Chieu thuong do thi
TTITLE3=Toi van co don
TTITLE4=Nhat ky cua hai dua minh
TTITLE5=Mua chia tay
TTITLE6=Ai buon hon ai
TTITLE7=Dem bo vo
TTITLE8=Ngo hon qua dem
TTITLE9=Hai hoa rung cho em
EXTD=
EXTT0=
EXTT1=
EXTT2=
EXTT3=
EXTT4=
EXTT5=
EXTT6=
EXTT7=
EXTT8=
EXTT9=
PLAYORDER=
